<?xml version="1.0" encoding="UTF-8"?>
<svg width="290px" height="381px" viewBox="0 0 290 381" version="1.1" xmlns="http://www.w3.org/2000/svg" xmlns:xlink="http://www.w3.org/1999/xlink">
    <!-- Generator: Sketch 43.2 (39069) - http://www.bohemiancoding.com/sketch -->
    <title>Shape</title>
    <desc>Created with Sketch.</desc>
    <defs></defs>
    <g id="Page-1" stroke="none" stroke-width="1" fill="none" fill-rule="evenodd">
        <g id="produgenesis_logo" fill-rule="nonzero" fill="#010101">
            <path d="M144.88,0 C63.04,0 0.73,157.67 0.73,236.57 C0.73,316.05 65.41,380.72 144.88,380.72 C224.35,380.72 289.03,316.05 289.03,236.57 C289.04,157.71 226.71,0 144.88,0 Z M144.88,357.07 C78.3538654,356.998351 24.4416491,303.086135 24.37,236.56 C24.4580281,227.973024 25.1699025,219.403794 26.5,210.92 L33.04,208.06 L45.33,202.39 L59.33,195.44 L85.33,222.86 L92.67,230.57 L98.15,222.68 L139.89,162.79 L175.63,196.71 L141.85,155.38 L139.5,152.49 L136.71,155.58 L92.37,204.58 L70.37,174.58 L65.9,168.45 L57.32,171.45 L35.77,178.95 L32.92,179.95 C51.08,109.37 96.06,23.79 144.92,23.79 C208.41,23.79 265.43,168.41 265.43,236.71 C265.270212,303.189238 211.359412,357.010597 144.88,357.06 L144.88,357.07 Z" id="Shape"></path>
        </g>
    </g>
</svg>