<?xml version="1.0" encoding="UTF-8"?>
<svg width="50px" height="50px" viewBox="0 0 50 50" version="1.1" xmlns="http://www.w3.org/2000/svg" xmlns:xlink="http://www.w3.org/1999/xlink">
    <title>Shape</title>
    <defs></defs>
    <g id="Page-1" stroke="none" stroke-width="1" fill="none" fill-rule="evenodd">
        <g id="dribbble" fill-rule="nonzero" fill="#FFFFFF">
            <path d="M49.43,20.152 C49.106,18.564 48.619,17 47.989,15.506 C47.37,14.039 46.602,12.627 45.71,11.307 C44.825,9.998 43.81,8.768 42.692,7.651 C41.575,6.532 40.344,5.516 39.036,4.633 C37.716,3.738 36.302,2.973 34.837,2.352 C33.343,1.723 31.78,1.235 30.191,0.913 C28.564,0.579 26.888,0.409 25.214,0.409 C23.538,0.409 21.864,0.579 20.235,0.913 C18.647,1.235 17.083,1.724 15.59,2.352 C14.125,2.973 12.711,3.739 11.389,4.633 C10.08,5.516 8.85,6.531 7.733,7.651 C6.615,8.768 5.601,9.999 4.717,11.307 C3.824,12.627 3.057,14.039 2.438,15.506 C1.805,17 1.32,18.564 0.995,20.152 C0.662,21.777 0.493,23.453 0.493,25.128 C0.493,26.806 0.662,28.482 0.995,30.108 C1.32,31.696 1.806,33.26 2.437,34.753 C3.056,36.218 3.824,37.634 4.716,38.954 C5.6,40.263 6.614,41.491 7.732,42.61 C8.849,43.727 10.08,44.741 11.388,45.626 C12.71,46.519 14.124,47.286 15.589,47.905 C17.081,48.538 18.646,49.02 20.234,49.346 C21.863,49.682 23.537,49.85 25.213,49.85 C26.887,49.85 28.563,49.682 30.19,49.346 C31.78,49.02 33.342,48.537 34.836,47.905 C36.301,47.286 37.715,46.518 39.035,45.626 C40.344,44.741 41.574,43.728 42.691,42.61 C43.808,41.491 44.824,40.262 45.709,38.954 C46.602,37.634 47.369,36.218 47.988,34.753 C48.619,33.261 49.105,31.696 49.429,30.108 C49.763,28.481 49.931,26.805 49.931,25.128 C49.932,23.453 49.764,21.777 49.43,20.152 Z M46.316,24.919 C46.011,24.853 38.867,23.315 31.613,24.227 C31.465,23.866 31.314,23.502 31.158,23.137 C30.719,22.104 30.246,21.08 29.754,20.075 C38.092,16.673 41.477,11.778 41.516,11.72 C44.477,15.314 46.268,19.908 46.316,24.919 Z M39.156,9.285 C39.103,9.367 36.097,13.943 28.129,16.93 C24.52,10.299 20.555,5.032 20.238,4.614 C21.834,4.227 23.498,4.018 25.213,4.018 C30.559,4.018 35.436,6.01 39.156,9.285 Z M20.156,4.631 C20.156,4.633 20.152,4.635 20.152,4.635 C20.152,4.635 20.129,4.641 20.09,4.649 C20.111,4.643 20.135,4.639 20.156,4.631 Z M16.205,6.035 C16.486,6.412 20.391,11.705 24.045,18.199 C13.908,20.892 5.111,20.787 4.553,20.777 C5.925,14.238 10.318,8.816 16.205,6.035 Z M4.102,25.128 C4.102,24.903 4.112,24.683 4.12,24.461 C4.492,24.469 14.924,24.706 25.793,21.453 C26.398,22.637 26.977,23.84 27.506,25.042 C27.227,25.12 26.949,25.204 26.674,25.294 C15.281,28.976 9.502,39.228 9.502,39.228 C9.502,39.228 9.51,39.234 9.51,39.238 C6.149,35.497 4.102,30.552 4.102,25.128 Z M25.213,46.241 C20.104,46.241 15.418,44.425 11.766,41.403 C12.043,41.628 12.239,41.772 12.239,41.772 C12.239,41.772 16.286,32.946 28.805,28.584 C28.852,28.566 28.899,28.553 28.946,28.539 C31.917,36.258 33.143,42.723 33.456,44.568 C30.922,45.646 28.137,46.241 25.213,46.241 Z M37.01,42.64 C36.795,41.365 35.67,35.169 32.901,27.56 C39.715,26.47 45.622,28.339 46.057,28.482 C45.117,34.364 41.75,39.438 37.01,42.64 Z" id="Shape"></path>
        </g>
    </g>
</svg>