<?xml version="1.0" encoding="UTF-8"?>
<svg width="96px" height="77px" viewBox="0 0 96 77" version="1.1" xmlns="http://www.w3.org/2000/svg" xmlns:xlink="http://www.w3.org/1999/xlink">
    <defs>
        <filter x="-50%" y="-50%" width="200%" height="200%" filterUnits="objectBoundingBox" id="filter-1">
            <feOffset dx="0" dy="2" in="SourceAlpha" result="shadowOffsetOuter1"></feOffset>
            <feGaussianBlur stdDeviation="2" in="shadowOffsetOuter1" result="shadowBlurOuter1"></feGaussianBlur>
            <feColorMatrix values="0 0 0 0 0   0 0 0 0 0   0 0 0 0 0  0 0 0 0.5 0" type="matrix" in="shadowBlurOuter1" result="shadowMatrixOuter1"></feColorMatrix>
            <feMerge>
                <feMergeNode in="shadowMatrixOuter1"></feMergeNode>
                <feMergeNode in="SourceGraphic"></feMergeNode>
            </feMerge>
        </filter>
    </defs>
    <g id="Page-1" stroke="none" stroke-width="1" fill="none" fill-rule="evenodd">
        <g id="github" filter="url(#filter-1)" transform="translate(3.000000, 2.000000)" fill-rule="nonzero" fill="#FFFFFF">
            <path d="M65.709,0.029 C66.879,2.686 67.637,7.099 66.506,10.33 C71.131,14.279 72.721,23.879 70.488,31.724 C77.08,32.227 84.932,31.482 90,33.505 C85.262,32.896 78.791,31.701 72.68,32.117 C71.523,32.196 69.807,32.073 69.891,33.702 C76.965,34.258 83.995,34.862 89.803,36.675 C84.042,35.735 77.049,34.301 69.891,34.101 C66.934,39.936 60.983,42.805 52.768,43.409 C53.651,45.33 55.342,46.061 55.755,49.153 C56.371,53.77 54.791,60.534 56.35,63.612 C57.098,65.087 58.317,65.126 59.139,66.386 C57.127,68.768 52.139,66.119 51.571,63.612 C50.598,59.317 53.053,52.658 50.379,49.747 C50.567,54.431 49.271,61.011 50.578,65.196 C51.093,66.842 52.58,67.477 52.171,68.961 C42.819,69.911 46.728,56.857 45.199,49.151 C43.788,49.252 44.408,51.264 44.403,52.124 C44.363,59.647 45.943,69.968 37.833,68.961 C37.596,67.38 38.921,66.842 39.426,65.398 C40.905,61.165 39.149,54.857 39.827,49.748 C36.732,52.081 40.152,60.228 38.234,64.404 C37.129,66.808 33.568,67.855 30.867,66.78 C31.219,64.992 33.067,65.28 33.851,63.613 C34.947,61.288 33.859,57.939 34.25,54.502 C28.521,55.645 24.077,54.336 21.902,50.738 C20.929,49.123 20.688,47.217 19.512,45.787 C18.342,44.355 16.472,44.162 15.93,42.223 C23.025,40.516 23.297,49.526 29.669,49.748 C31.623,49.818 32.639,49.184 34.447,48.759 C34.953,46.487 36.036,44.793 37.633,43.606 C29.703,42.52 23.155,40.05 20.11,34.1 C12.902,34.455 6.306,35.417 0.197,36.871 C5.742,34.857 12.581,34.135 19.912,33.898 C19.48,31.302 15.693,32.016 13.342,32.116 C8.973,32.31 3.473,32.853 0,33.505 C5.034,31.71 12.098,31.934 18.918,31.92 C16.832,25.38 17.555,14.991 22.104,11.122 C20.815,7.873 21.215,2.559 22.9,0.029 C27.979,0.257 31.059,2.472 34.25,4.586 C38.207,3.461 42.368,2.901 47.79,3.199 C50.07,3.325 52.441,4.35 54.159,4.188 C55.844,4.03 57.701,2.139 59.337,1.417 C61.468,0.476 63.271,0.117 65.709,0.029" id="Shape"></path>
        </g>
    </g>
</svg>