<?xml version="1.0" encoding="UTF-8"?>
<svg width="46px" height="38px" viewBox="0 0 46 38" version="1.1" xmlns="http://www.w3.org/2000/svg" xmlns:xlink="http://www.w3.org/1999/xlink">
    <defs></defs>
    <g id="Page-1" stroke="none" stroke-width="1" fill="none" fill-rule="evenodd">
        <g id="if_social-56_1591869" fill="#FFFFFF">
            <g id="Group">
                <path d="M24.474,29.754 C22.741,31.442 21.023,33.102 19.321,34.775 C18.726,35.361 18.057,35.685 17.203,35.64 C16.62,35.609 16.294,35.353 16.115,34.8 C14.811,30.753 13.488,26.716 12.191,22.665 C12.065,22.272 11.879,22.081 11.481,21.958 C8.409,21.02 5.343,20.06 2.282,19.087 C1.811,18.937 1.336,18.741 0.929,18.464 C0.3,18.038 0.208,17.343 0.772,16.843 C1.293,16.382 1.915,15.98 2.561,15.724 C6.316,14.236 10.091,12.796 13.86,11.343 C23.425,7.65 32.99,3.96 42.556,0.267 C44.375,-0.436 45.773,0.554 45.584,2.521 C45.463,3.779 45.137,5.017 44.874,6.259 C42.797,16.066 40.718,25.874 38.63,35.679 C38.134,38.007 36.499,38.615 34.583,37.202 C31.374,34.837 28.168,32.464 24.961,30.095 C24.808,29.984 24.649,29.877 24.474,29.754 Z M17.271,32.732 C17.307,32.722 17.343,32.712 17.379,32.703 C17.399,32.611 17.428,32.521 17.436,32.43 C17.642,30.207 17.86,27.985 18.039,25.758 C18.079,25.262 18.249,24.91 18.622,24.576 C21.58,21.931 24.52,19.269 27.466,16.613 C30.727,13.672 33.989,10.734 37.238,7.781 C37.439,7.599 37.523,7.289 37.661,7.037 C37.355,7.004 37.027,6.881 36.749,6.953 C36.37,7.051 36.011,7.271 35.673,7.484 C28.476,12.017 21.285,16.558 14.083,21.082 C13.676,21.338 13.6,21.555 13.755,22.002 C14.286,23.527 14.769,25.066 15.27,26.602 C15.937,28.646 16.604,30.689 17.271,32.732 Z" id="Shape"></path>
            </g>
        </g>
    </g>
</svg>